<svg width="16" height="16" viewBox="0 0 16 16" fill="none" xmlns="http://www.w3.org/2000/svg">
<path fill-rule="evenodd" clip-rule="evenodd" d="M2.07761 7.18443C2.07761 6.54185 2.20418 5.90557 2.45008 5.31191C2.69598 4.71825 3.05641 4.17884 3.51077 3.72447C3.96514 3.27011 4.50455 2.90968 5.09821 2.66378C5.69187 2.41788 6.32815 2.29132 6.97073 2.29132C7.6133 2.29132 8.24958 2.41788 8.84324 2.66378C9.4369 2.90968 9.97631 3.27011 10.4307 3.72447C10.885 4.17884 11.2455 4.71825 11.4914 5.31191C11.7373 5.90557 11.8638 6.54185 11.8638 7.18443C11.8638 8.48216 11.3483 9.72674 10.4307 10.6444C9.51304 11.562 8.26846 12.0775 6.97073 12.0775C5.67299 12.0775 4.42841 11.562 3.51077 10.6444C2.59314 9.72674 2.07761 8.48216 2.07761 7.18443ZM6.97073 0.660278C5.93246 0.660427 4.90922 0.908374 3.98604 1.38351C3.06287 1.85865 2.26643 2.54726 1.66291 3.39211C1.05939 4.23695 0.666223 5.21364 0.516084 6.241C0.365944 7.26836 0.463168 8.31671 0.799676 9.29893C1.13618 10.2812 1.70226 11.1689 2.45085 11.8883C3.19944 12.6078 4.10894 13.1382 5.10374 13.4355C6.09855 13.7327 7.14993 13.7883 8.17052 13.5975C9.19111 13.4067 10.1514 12.9751 10.9717 12.3385L13.7338 15.1007C13.8876 15.2492 14.0936 15.3314 14.3075 15.3296C14.5213 15.3277 14.7258 15.2419 14.877 15.0907C15.0282 14.9395 15.114 14.735 15.1159 14.5212C15.1177 14.3073 15.0355 14.1013 14.887 13.9475L12.1248 11.1854C12.8735 10.221 13.3366 9.06585 13.4614 7.85133C13.5862 6.63681 13.3677 5.41164 12.8308 4.31514C12.2938 3.21864 11.46 2.29481 10.424 1.64871C9.38809 1.0026 8.19164 0.660143 6.97073 0.660278ZM6.97073 10.4465C7.83588 10.4465 8.6656 10.1028 9.27736 9.49106C9.88912 8.8793 10.2328 8.04958 10.2328 7.18443C10.2328 6.31927 9.88912 5.48955 9.27736 4.87779C8.6656 4.26603 7.83588 3.92235 6.97073 3.92235C6.10557 3.92235 5.27585 4.26603 4.66409 4.87779C4.05233 5.48955 3.70865 6.31927 3.70865 7.18443C3.70865 8.04958 4.05233 8.8793 4.66409 9.49106C5.27585 10.1028 6.10557 10.4465 6.97073 10.4465Z" fill="#008000"/>
</svg>
